{"title":"Alex Cross(2012)MPEG-4[DaScubaDude]","uid":14387079,"size":1008582362,"categoryP":"video","categoryS":"movies","magnet":"?xt=urn:btih:5af96c324ddfb41db0d0ff10a962f65ce10d5706&amp;dn=Alex+Cross%282012%29MPEG-4%5BDaScubaDude%5D&amp;tr=udp%3A%2F%2Ftracker.leechers-paradise.org%3A6969&amp;tr=udp%3A%2F%2Fzer0day.ch%3A1337&amp;tr=udp%3A%2F%2Fopen.demonii.com%3A1337&amp;tr=udp%3A%2F%2Ftracker.coppersurfer.tk%3A6969&amp;tr=udp%3A%2F%2Fexodus.desync.com%3A6969","seeders":0,"leechers":1,"uploader":"dascuba","files":1,"time":1461284202,"description":"Alex Cross (2012)\r\nPG-13 | 1h 41min | Action, Crime, Mystery | 19 October 2012 (USA)\r\nA homicide detective is pushed to the brink of his moral and physical limits as he tangles with a ferociously skilled serial killer who specializes in torture and pain.\r\nDirector: Rob Cohen\r\nWriters: Marc Moss (screenplay), Kerry Williamson (screenplay) |\r\nStars: Tyler Perry, Matthew Fox, Rachel Nichols\r\n\r\nGeneral\r\nComplete name                            : Alex CrossALEX_CROSS_Title1.mp4\r\nFormat                                   : MPEG-4\r\nFormat profile                           : Base Media\r\nCodec ID                                 : isom\r\nFile size                                : 962 MiB\r\nDuration                                 : 1h 41mn\r\nOverall bit rate                         : 1 326 Kbps\r\nMovie name                               : ALEX_CROSS\r\nGenre                                    : Thriller\r\nWriting application                      : Lavf54.6.100\r\n\r\nVideo\r\nID                                       : 1\r\nFormat                                   : AVC\r\nFormat/Info                              : Advanced Video Codec\r\nFormat profile                           :   \r\nFormat settings, CABAC                   : No\r\nFormat settings, ReFrames                : 6 frames\r\nCodec ID                                 : avc1\r\nCodec ID/Info                            : Advanced Video Coding\r\nDuration                                 : 1h 41mn\r\nBit rate                                 : 1 191 Kbps\r\nWidth                                    : 720 pixels\r\nHeight                                   : 404 pixels\r\nDisplay aspect ratio                     : 16:9\r\nFrame rate mode                          : Constant\r\nFrame rate                               : 29.970 fps\r\nColor space                              : YUV\r\nChroma subsampling                       : 4:2:0\r\nBit depth                                : 8 bits\r\nScan type                                : Progressive\r\nBits/(Pixel*Frame)                       : 0.137\r\nStream size                              : 864 MiB (90%)\r\n\r\nAudio\r\nID                                       : 2\r\nFormat                                   : AAC\r\nFormat/Info                              : Advanced Audio Codec\r\nFormat profile                           : LC\r\nCodec ID                                 : 40\r\nDuration                                 : 1h 41mn\r\nBit rate mode                            : Constant\r\nBit rate                                 : 128 Kbps\r\nChannel(s)                               : 2 channels\r\nChannel positions                        : Front: L R\r\nSampling rate                            : 44.1 KHz\r\nCompression mode                         : Lossy\r\nStream size                              : 92.8 MiB (10%)","torrent":{"xt":"urn:btih:5af96c324ddfb41db0d0ff10a962f65ce10d5706","amp;dn":"Alex+Cross%282012%29MPEG-4%5BDaScubaDude%5D","amp;tr":["udp%3A%2F%2Ftracker.leechers-paradise.org%3A6969","udp%3A%2F%2Fzer0day.ch%3A1337","udp%3A%2F%2Fopen.demonii.com%3A1337","udp%3A%2F%2Ftracker.coppersurfer.tk%3A6969","udp%3A%2F%2Fexodus.desync.com%3A6969"],"infoHash":"5af96c324ddfb41db0d0ff10a962f65ce10d5706","infoHashBuffer":{"type":"Buffer","data":[90,249,108,50,77,223,180,29,176,208,255,16,169,98,246,92,225,13,87,6]},"announce":[],"urlList":[]}}